<?xml version="1.0" standalone="no"?>
<!DOCTYPE svg PUBLIC "-//W3C//DTD SVG 20010904//EN"
 "http://www.w3.org/TR/2001/REC-SVG-20010904/DTD/svg10.dtd">
<svg version="1.0" xmlns="http://www.w3.org/2000/svg"
 width="170.000000pt" height="170.000000pt" viewBox="0 0 170.000000 170.000000"
 preserveAspectRatio="xMidYMid meet">
<metadata>
Created by potrace 1.11, written by Peter Selinger 2001-2013
</metadata>
<g transform="translate(0.000000,170.000000) scale(0.100000,-0.100000)"
fill="#000000" stroke="none">
<path d="M616 1524 c-122 -27 -185 -68 -256 -165 -104 -143 -115 -187 -115
-469 0 -300 7 -320 206 -558 56 -67 105 -122 109 -122 4 0 18 -10 31 -21 113
-100 258 -123 387 -62 70 33 67 31 161 125 124 124 222 257 251 342 29 81 41
213 34 376 -8 208 -30 277 -129 400 -65 81 -79 93 -135 118 -83 37 -124 44
-300 48 -133 3 -191 0 -244 -12z m396 -86 c46 -10 62 -9 82 1 21 12 29 11 58
-6 40 -23 47 -63 22 -119 -10 -22 -20 -43 -22 -49 -3 -5 7 1 21 13 14 13 31
37 37 53 7 16 16 29 20 29 9 0 94 -117 102 -140 3 -8 -1 -30 -8 -49 -14 -33
-14 -33 11 -27 36 9 40 -17 40 -259 0 -193 -2 -215 -23 -276 -37 -108 -111
-214 -142 -204 -12 4 -52 -31 -133 -111 -106 -107 -118 -116 -144 -110 -69 16
-118 18 -169 6 l-55 -13 -118 117 c-91 91 -122 116 -140 114 -19 -2 -32 9 -66
59 -75 107 -87 153 -95 363 -8 178 -1 293 18 312 5 5 16 6 25 3 13 -6 13 -9
-5 -27 -19 -19 -19 -28 -13 -206 5 -126 12 -196 21 -214 28 -54 159 -135 255
-157 68 -16 107 -13 138 10 56 41 171 39 219 -4 23 -21 57 -21 135 -1 124 32
237 112 257 183 13 46 13 388 0 396 -5 3 -27 -6 -48 -20 -22 -14 -63 -35 -92
-46 -165 -63 -557 -65 -730 -4 -51 18 -125 64 -116 72 3 3 -1 18 -9 34 -23 43
-19 58 37 138 l51 74 23 -45 c24 -47 66 -92 49 -53 -16 40 -32 110 -28 125 3
9 18 24 34 34 26 15 35 16 60 6 23 -10 43 -10 87 -1 114 22 240 22 354 -1z"/>
<path d="M511 497 c0 -7 6 -27 13 -46 10 -29 30 -44 136 -103 69 -39 141 -72
160 -75 29 -4 55 6 145 53 147 76 173 96 181 140 3 19 4 37 2 39 -3 3 -43 -7
-89 -21 -114 -36 -285 -44 -379 -19 -147 39 -170 44 -169 32z"/>
</g>
</svg>
